<svg xmlns="http://www.w3.org/2000/svg" xmlns:xlink="http://www.w3.org/1999/xlink" viewBox="0 0 200 40">
  <defs>
    <clipPath id="gx-clip">
      <rect width="182" height="181.998" fill="none"/>
    </clipPath>
  </defs>
  <g transform="translate(4, 2) scale(0.198)" clip-path="url(#gx-clip)">
    <path d="M142.6,83.021H102.325a11.325,11.325,0,0,0,0,22.65h14.631l16.17,16.171A51.662,51.662,0,0,0,142.6,98.974a52.885,52.885,0,0,0,0-15.953m16.075-.193a69.279,69.279,0,0,1,.484,8.17A68.138,68.138,0,0,1,48.774,144.506L32.542,160.738A91,91,0,0,0,182,91q0-4.129-.361-8.17ZM91,38.795A51.827,51.827,0,0,0,60.154,48.871l16.3,16.3a29.689,29.689,0,0,1,22.53-2.719L107.665,41.5A52.3,52.3,0,0,0,91,38.793ZM37.495,133.226a68.157,68.157,0,0,1,95.734-95.734L149.461,21.26a91,91,0,0,0-128.2,128.2l16.232-16.232Zm84.352-.1A52.217,52.217,0,0,1,48.872,60.151l16.3,16.3a29.639,29.639,0,0,0,40.367,40.368l16.3,16.3Z" fill="#ff6310"/>
  </g>
  <text x="44" y="21" font-family="Helvetica, Arial, sans-serif" font-size="11" fill="#e8e8ea" font-weight="600">Great</text>
  <text x="44" y="34" font-family="Helvetica, Arial, sans-serif" font-size="11" fill="#e8e8ea" font-weight="600">Expectations</text>
</svg>
